<mxfile host="drawio-plugin" modified="2022-06-13T10:33:40.755Z" agent="5.0 (Macintosh; Intel Mac OS X 10_16_0) AppleWebKit/537.36 (KHTML, like Gecko) Chrome/84.0.4147.105 Safari/537.36" etag="8FrGLQ1KjekxMui1M4GL" version="14.7.4" type="embed"><diagram id="FFyvNpw8B9ehaI9KT_yg" name="Page-1"><mxGraphModel dx="605" dy="517" grid="1" gridSize="10" guides="1" tooltips="1" connect="1" arrows="1" fold="1" page="1" pageScale="1" pageWidth="850" pageHeight="1100" math="0" shadow="0"><root><mxCell id="0"/><mxCell id="1" parent="0"/><mxCell id="2" value="User 1" style="html=1;fillColor=#fff2cc;strokeColor=#d6b656;" parent="1" vertex="1"><mxGeometry x="177" y="190" width="110" height="50" as="geometry"/></mxCell><mxCell id="3" value="User 2" style="html=1;fillColor=#fff2cc;strokeColor=#d6b656;" parent="1" vertex="1"><mxGeometry x="177" y="310" width="110" height="50" as="geometry"/></mxCell><mxCell id="4" value="User 3" style="html=1;fillColor=#fff2cc;strokeColor=#d6b656;" parent="1" vertex="1"><mxGeometry x="177" y="430" width="110" height="50" as="geometry"/></mxCell><mxCell id="6" value="Serviceman 1" style="html=1;fillColor=#d5e8d4;strokeColor=#82b366;" parent="1" vertex="1"><mxGeometry x="562" y="190" width="110" height="50" as="geometry"/></mxCell><mxCell id="7" value="Serviceman 2" style="html=1;fillColor=#d5e8d4;strokeColor=#82b366;" parent="1" vertex="1"><mxGeometry x="562" y="310" width="110" height="50" as="geometry"/></mxCell><mxCell id="8" value="Serviceman 3" style="html=1;fillColor=#d5e8d4;strokeColor=#82b366;" parent="1" vertex="1"><mxGeometry x="562" y="430" width="110" height="50" as="geometry"/></mxCell><mxCell id="17" value="" style="endArrow=classic;startArrow=classic;html=1;fontSize=20;entryX=1;entryY=0.5;entryDx=0;entryDy=0;" parent="1" target="2" edge="1"><mxGeometry width="50" height="50" relative="1" as="geometry"><mxPoint x="420" y="330" as="sourcePoint"/><mxPoint x="477" y="300" as="targetPoint"/></mxGeometry></mxCell><mxCell id="19" value="" style="endArrow=classic;startArrow=classic;html=1;fontSize=20;" parent="1" edge="1"><mxGeometry width="50" height="50" relative="1" as="geometry"><mxPoint x="287" y="453" as="sourcePoint"/><mxPoint x="420" y="340" as="targetPoint"/></mxGeometry></mxCell><mxCell id="20" value="" style="endArrow=classic;startArrow=classic;html=1;fontSize=20;exitX=1;exitY=0.5;exitDx=0;exitDy=0;" parent="1" source="3" edge="1"><mxGeometry width="50" height="50" relative="1" as="geometry"><mxPoint x="277" y="340" as="sourcePoint"/><mxPoint x="420" y="335" as="targetPoint"/></mxGeometry></mxCell><mxCell id="22" value="" style="endArrow=classic;startArrow=classic;html=1;fontSize=20;exitX=0;exitY=0.5;exitDx=0;exitDy=0;" parent="1" source="6" edge="1"><mxGeometry width="50" height="50" relative="1" as="geometry"><mxPoint x="427" y="350" as="sourcePoint"/><mxPoint x="430" y="330" as="targetPoint"/><Array as="points"/></mxGeometry></mxCell><mxCell id="23" value="" style="endArrow=classic;startArrow=classic;html=1;fontSize=20;entryX=0;entryY=0.5;entryDx=0;entryDy=0;" parent="1" target="7" edge="1"><mxGeometry width="50" height="50" relative="1" as="geometry"><mxPoint x="430" y="335" as="sourcePoint"/><mxPoint x="477" y="300" as="targetPoint"/></mxGeometry></mxCell><mxCell id="24" value="" style="endArrow=classic;startArrow=classic;html=1;fontSize=20;entryX=0;entryY=0.5;entryDx=0;entryDy=0;" parent="1" target="8" edge="1"><mxGeometry width="50" height="50" relative="1" as="geometry"><mxPoint x="430" y="340" as="sourcePoint"/><mxPoint x="477" y="300" as="targetPoint"/></mxGeometry></mxCell><mxCell id="26" style="edgeStyle=orthogonalEdgeStyle;rounded=0;orthogonalLoop=1;jettySize=auto;html=1;" parent="1" source="25" edge="1"><mxGeometry relative="1" as="geometry"><mxPoint x="170" y="220" as="targetPoint"/><Array as="points"><mxPoint x="130" y="100"/><mxPoint x="130" y="220"/></Array></mxGeometry></mxCell><mxCell id="27" style="edgeStyle=orthogonalEdgeStyle;rounded=0;orthogonalLoop=1;jettySize=auto;html=1;entryX=0;entryY=0.5;entryDx=0;entryDy=0;" parent="1" source="25" target="3" edge="1"><mxGeometry relative="1" as="geometry"><Array as="points"><mxPoint x="130" y="100"/><mxPoint x="130" y="335"/></Array></mxGeometry></mxCell><mxCell id="28" style="edgeStyle=orthogonalEdgeStyle;rounded=0;orthogonalLoop=1;jettySize=auto;html=1;entryX=0;entryY=0.5;entryDx=0;entryDy=0;" parent="1" source="25" target="4" edge="1"><mxGeometry relative="1" as="geometry"><Array as="points"><mxPoint x="130" y="100"/><mxPoint x="130" y="455"/></Array></mxGeometry></mxCell><mxCell id="30" style="edgeStyle=orthogonalEdgeStyle;rounded=0;orthogonalLoop=1;jettySize=auto;html=1;entryX=1;entryY=0.5;entryDx=0;entryDy=0;" parent="1" source="25" target="6" edge="1"><mxGeometry relative="1" as="geometry"/></mxCell><mxCell id="31" style="edgeStyle=orthogonalEdgeStyle;rounded=0;orthogonalLoop=1;jettySize=auto;html=1;entryX=1;entryY=0.5;entryDx=0;entryDy=0;" parent="1" source="25" target="7" edge="1"><mxGeometry relative="1" as="geometry"/></mxCell><mxCell id="32" style="edgeStyle=orthogonalEdgeStyle;rounded=0;orthogonalLoop=1;jettySize=auto;html=1;entryX=1;entryY=0.5;entryDx=0;entryDy=0;" parent="1" source="25" target="8" edge="1"><mxGeometry relative="1" as="geometry"/></mxCell><mxCell id="25" value="Backend" style="ellipse;shape=umlEntity;whiteSpace=wrap;html=1;fillColor=#dae8fc;strokeColor=#6c8ebf;" parent="1" vertex="1"><mxGeometry x="385" y="60" width="80" height="80" as="geometry"/></mxCell></root></mxGraphModel></diagram></mxfile>